<?xml version="1.0" encoding="UTF-8"?>
<svg width="1273px" height="105px" viewBox="0 0 1273 105" version="1.1" xmlns="http://www.w3.org/2000/svg" xmlns:xlink="http://www.w3.org/1999/xlink">
    <!-- Generator: Sketch 52.4 (67378) - http://www.bohemiancoding.com/sketch -->
    <title>NOVO PROBLEMA</title>
    <desc>Created with Sketch.</desc>
    <g id="versão-1" stroke="none" stroke-width="1" fill="none" fill-rule="evenodd">
        <path d="M98,105 L65.9587629,105 L32.0412371,53.2090395 L32.0412371,105 L0,105 L0,2 L32.0412371,2 L65.9587629,54.6638418 L65.9587629,2 L98,2 L98,105 Z M162.644231,0 C172.259663,0 181.057652,2.23862961 189.038462,6.71595598 C197.019271,11.1932824 203.341323,17.4277455 208.004808,25.4195323 C212.668293,33.4113192 215,42.4139802 215,52.4277854 C215,62.4415906 212.668293,71.4442517 208.004808,79.4360385 C203.341323,87.4278254 196.995232,93.6863598 188.966346,98.2118294 C180.93746,102.737299 172.163509,105 162.644231,105 C153.028798,105 144.206771,102.737299 136.177885,98.2118294 C128.148998,93.6863598 121.77887,87.4278254 117.067308,79.4360385 C112.355746,71.4442517 110,62.4415906 110,52.4277854 C110,42.4139802 112.355746,33.4113192 117.067308,25.4195323 C121.77887,17.4277455 128.148998,11.1932824 136.177885,6.71595598 C144.206771,2.23862961 153.028798,0 162.644231,0 Z M162.072202,30 C155.62211,30 150.664277,32.0687624 147.198556,36.2063492 C143.732835,40.343936 142,45.966102 142,53.0730159 C142,60.0825747 143.732835,65.656064 147.198556,69.7936508 C150.664277,73.9312376 155.62211,76 162.072202,76 C168.426025,76 173.335723,73.9312376 176.801444,69.7936508 C180.267165,65.656064 182,60.0825747 182,53.0730159 C182,45.966102 180.267165,40.343936 176.801444,36.2063492 C173.335723,32.0687624 168.426025,30 162.072202,30 Z M253.023591,2 L274.072084,72.8488701 L294.976409,2 L329,2 L294.688073,105 L253.311927,105 L219,2 L253.023591,2 Z M386.644231,0 C396.259663,0 405.057652,2.23862961 413.038462,6.71595598 C421.019271,11.1932824 427.341323,17.4277455 432.004808,25.4195323 C436.668293,33.4113192 439,42.4139802 439,52.4277854 C439,62.4415906 436.668293,71.4442517 432.004808,79.4360385 C427.341323,87.4278254 420.995232,93.6863598 412.966346,98.2118294 C404.93746,102.737299 396.163509,105 386.644231,105 C377.028798,105 368.206771,102.737299 360.177885,98.2118294 C352.148998,93.6863598 345.77887,87.4278254 341.067308,79.4360385 C336.355746,71.4442517 334,62.4415906 334,52.4277854 C334,42.4139802 336.355746,33.4113192 341.067308,25.4195323 C345.77887,17.4277455 352.148998,11.1932824 360.177885,6.71595598 C368.206771,2.23862961 377.028798,0 386.644231,0 Z M386.072202,30 C379.62211,30 374.664277,32.0687624 371.198556,36.2063492 C367.732835,40.343936 366,45.966102 366,53.0730159 C366,60.0825747 367.732835,65.656064 371.198556,69.7936508 C374.664277,73.9312376 379.62211,76 386.072202,76 C392.426025,76 397.335723,73.9312376 400.801444,69.7936508 C404.267165,65.656064 406,60.0825747 406,53.0730159 C406,45.966102 404.267165,40.343936 400.801444,36.2063492 C397.335723,32.0687624 392.426025,30 386.072202,30 Z M507.207254,72.2669492 L507.207254,105 L475,105 L475,2 L519.974093,2 C532.547559,2 542.19513,5.20053297 548.917098,11.6016949 C555.639066,18.0028569 559,26.5861044 559,37.3516949 C559,43.8498442 557.500879,49.7417344 554.502591,55.0275424 C551.504303,60.3133503 547.079477,64.5079882 541.227979,67.6115819 C535.376482,70.7151756 528.291924,72.2669492 519.974093,72.2669492 L507.207254,72.2669492 Z M516.068182,46 C522.689427,46 526,42.833365 526,36.5 C526,30.166635 522.689427,27 516.068182,27 L507,27 L507,46 L516.068182,46 Z M619.62,105 L600.19,68.0480226 L600.19,105 L568,105 L568,2 L615.85,2 C624.163375,2 631.268304,3.47903417 637.165,6.43714689 C643.061696,9.39525961 647.484152,13.4201723 650.4325,18.5120056 C653.380848,23.603839 654.855,29.3502505 654.855,35.7514124 C654.855,42.6375109 652.945852,48.7476193 649.1275,54.0819209 C645.309148,59.4162225 639.823369,63.2471635 632.67,65.5748588 L655,105 L619.62,105 Z M601,46 L613.736842,46 C616.824577,46 619.140343,45.3152846 620.684211,43.9458333 C622.228078,42.576382 623,40.4277924 623,37.5 C623,34.8555423 622.203955,32.7777853 620.611842,31.2666667 C619.019729,29.755548 616.728085,29 613.736842,29 L601,29 L601,46 Z M714.644231,0 C724.259663,0 733.057652,2.23862961 741.038462,6.71595598 C749.019271,11.1932824 755.341323,17.4277455 760.004808,25.4195323 C764.668293,33.4113192 767,42.4139802 767,52.4277854 C767,62.4415906 764.668293,71.4442517 760.004808,79.4360385 C755.341323,87.4278254 748.995232,93.6863598 740.966346,98.2118294 C732.93746,102.737299 724.163509,105 714.644231,105 C705.028798,105 696.206771,102.737299 688.177885,98.2118294 C680.148998,93.6863598 673.77887,87.4278254 669.067308,79.4360385 C664.355746,71.4442517 662,62.4415906 662,52.4277854 C662,42.4139802 664.355746,33.4113192 669.067308,25.4195323 C673.77887,17.4277455 680.148998,11.1932824 688.177885,6.71595598 C696.206771,2.23862961 705.028798,0 714.644231,0 Z M715.072202,30 C708.62211,30 703.664277,32.0687624 700.198556,36.2063492 C696.732835,40.343936 695,45.966102 695,53.0730159 C695,60.0825747 696.732835,65.656064 700.198556,69.7936508 C703.664277,73.9312376 708.62211,76 715.072202,76 C721.426025,76 726.335723,73.9312376 729.801444,69.7936508 C733.267165,65.656064 735,60.0825747 735,53.0730159 C735,45.966102 733.267165,40.343936 729.801444,36.2063492 C726.335723,32.0687624 721.426025,30 715.072202,30 Z M847.492611,52.190678 C853.65794,53.6454875 858.450448,56.6278023 861.870279,61.1377119 C865.29011,65.6476214 867,70.8606107 867,76.7768362 C867,85.7966553 864.037796,92.7553898 858.1133,97.6532486 C852.188805,102.551107 843.687521,105 832.609195,105 L779,105 L779,2 L831.164204,2 C841.568197,2 849.756401,4.27916742 855.729064,8.83757062 C861.701727,13.3959738 864.688013,20.0395044 864.688013,28.7683616 C864.688013,34.7815743 863.122621,39.8490849 859.99179,43.9710452 C856.860959,48.0930055 852.694607,50.8328557 847.492611,52.190678 Z M811,42 L823.455172,42 C826.351739,42 828.499993,41.4400056 829.9,40.32 C831.300007,39.1999944 832,37.473345 832,35.14 C832,32.7133212 831.300007,30.9166725 829.9,29.75 C828.499993,28.5833275 826.351739,28 823.455172,28 L811,28 L811,42 Z M825.51875,78 C828.393764,78 830.526035,77.4633387 831.915625,76.39 C833.305215,75.3166613 834,73.5666788 834,71.14 C834,66.3799762 831.172945,64 825.51875,64 L811,64 L811,78 L825.51875,78 Z M910.077982,80.559322 L941,80.559322 L941,105 L878,105 L878,2 L910.077982,2 L910.077982,80.559322 Z M982.983051,27.6045198 L982.983051,40.4067797 L1014.67797,40.4067797 L1014.67797,64.7019774 L982.983051,64.7019774 L982.983051,79.25 L1019,79.25 L1019,105 L951,105 L951,2 L1019,2 L1019,27.6045198 L982.983051,27.6045198 Z M1154,2 L1154,105 L1122.05758,105 L1122.05758,53.6454802 L1106.30317,105 L1078.84136,105 L1063.08696,53.6454802 L1063.08696,105 L1031,105 L1031,2 L1070.31375,2 L1092.86134,63.829096 L1114.83079,2 L1154,2 Z M1234.02458,89.4336158 L1199.83053,89.4336158 L1194.75938,105 L1161,105 L1198.52652,2 L1235.61837,2 L1273,105 L1239.09573,105 L1234.02458,89.4336158 Z M1226,65 L1217,36 L1208,65 L1226,65 Z" id="NOVO-PROBLEMA" fill="#FAFAFA"></path>
    </g>
</svg>