<?xml version="1.0" encoding="UTF-8"?>
<svg width="1368px" height="106px" viewBox="0 0 1368 106" version="1.1" xmlns="http://www.w3.org/2000/svg" xmlns:xlink="http://www.w3.org/1999/xlink">
    <!-- Generator: Sketch 52.4 (67378) - http://www.bohemiancoding.com/sketch -->
    <title>EDITAR PROBLEMA</title>
    <desc>Created with Sketch.</desc>
    <g id="versão-1" stroke="none" stroke-width="1" fill="none" fill-rule="evenodd">
        <path d="M32.4533898,27.8531073 L32.4533898,40.779661 L64.6144068,40.779661 L64.6144068,65.3107345 L32.4533898,65.3107345 L32.4533898,80 L69,80 L69,106 L0,106 L0,2 L69,2 L69,27.8531073 L32.4533898,27.8531073 Z M178,53.7062147 C178,63.5970363 175.805452,72.5084349 171.41629,80.440678 C167.027127,88.372921 160.760473,94.6157964 152.616139,99.1694915 C144.471804,103.723187 134.986479,106 124.159879,106 L81,106 L81,2 L124.159879,2 C134.986479,2 144.471804,4.2033678 152.616139,8.61016949 C160.760473,13.0169712 167.027127,19.1374373 171.41629,26.9717514 C175.805452,34.8060655 178,43.7174642 178,53.7062147 Z M121.606481,76 C128.782443,76 134.475288,74.0105684 138.685185,70.0316456 C142.895083,66.0527227 145,60.3755643 145,53 C145,45.6244357 142.895083,39.9472773 138.685185,35.9683544 C134.475288,31.9894316 128.782443,30 121.606481,30 L114,30 L114,76 L121.606481,76 Z M222,2 L222,106 L190,106 L190,2 L222,2 Z M318,2 L318,27.8531073 L290.557047,27.8531073 L290.557047,106 L258.151007,106 L258.151007,27.8531073 L231,27.8531073 L231,2 L318,2 Z M392.676585,90.2824859 L358.177232,90.2824859 L353.060802,106 L319,106 L356.861578,2 L394.284605,2 L432,106 L397.793014,106 L392.676585,90.2824859 Z M385,65 L375.5,36 L366,65 L385,65 Z M490.62,106 L471.19,68.6892655 L471.19,106 L439,106 L439,2 L486.85,2 C495.163375,2 502.268304,3.49339373 508.165,6.48022599 C514.061696,9.46705825 518.484152,13.5310477 521.4325,18.6723164 C524.380848,23.813585 525.855,29.6157869 525.855,36.079096 C525.855,43.0320498 523.945852,49.2014797 520.1275,54.5875706 C516.309148,59.9736616 510.823369,63.8417962 503.67,66.1920904 L526,106 L490.62,106 Z M471,47 L483.736842,47 C486.824577,47 489.140343,46.2750073 490.684211,44.825 C492.228078,43.3749928 493,41.1000155 493,38 C493,35.199986 492.203955,33.000008 490.611842,31.4 C489.019729,29.799992 486.728085,29 483.736842,29 L471,29 L471,47 Z M594.207254,72.9491525 L594.207254,106 L562,106 L562,2 L606.974093,2 C619.547559,2 629.19513,5.2316061 635.917098,11.6949153 C642.639066,18.1582244 646,26.8248044 646,37.6949153 C646,44.2561533 644.500879,50.2052464 641.502591,55.5423729 C638.504303,60.8794994 634.079477,65.1148619 628.227979,68.2485876 C622.376482,71.3823132 615.291924,72.9491525 606.974093,72.9491525 L594.207254,72.9491525 Z M603.068182,47 C609.689427,47 613,43.833365 613,37.5 C613,31.166635 609.689427,28 603.068182,28 L594,28 L594,47 L603.068182,47 Z M707.62,106 L688.19,68.6892655 L688.19,106 L656,106 L656,2 L703.85,2 C712.163375,2 719.268304,3.49339373 725.165,6.48022599 C731.061696,9.46705825 735.484152,13.5310477 738.4325,18.6723164 C741.380848,23.813585 742.855,29.6157869 742.855,36.079096 C742.855,43.0320498 740.945852,49.2014797 737.1275,54.5875706 C733.309148,59.9736616 727.823369,63.8417962 720.67,66.1920904 L743,106 L707.62,106 Z M689,47 L701.736842,47 C704.824577,47 707.140343,46.2750073 708.684211,44.825 C710.228078,43.3749928 711,41.1000155 711,38 C711,35.199986 710.203955,33.000008 708.611842,31.4 C707.019729,29.799992 704.728085,29 701.736842,29 L689,29 L689,47 Z M804.145604,0 C813.852613,0 822.734392,2.25994989 830.791209,6.77991747 C838.848026,11.299885 845.230288,17.593724 849.938187,25.6616231 C854.646086,33.7295222 857,42.8179229 857,52.9270977 C857,63.0362725 854.646086,72.1246731 849.938187,80.1925722 C845.230288,88.2604713 838.823758,94.5786108 830.718407,99.1471802 C822.613055,103.71575 813.755543,106 804.145604,106 C794.438596,106 785.53255,103.71575 777.427198,99.1471802 C769.321846,94.5786108 762.891049,88.2604713 758.134615,80.1925722 C753.378181,72.1246731 751,63.0362725 751,52.9270977 C751,42.8179229 753.378181,33.7295222 758.134615,25.6616231 C762.891049,17.593724 769.321846,11.299885 777.427198,6.77991747 C785.53255,2.25994989 794.438596,0 804.145604,0 Z M804.072202,30 C797.62211,30 792.664277,32.0687624 789.198556,36.2063492 C785.732835,40.343936 784,45.966102 784,53.0730159 C784,60.0825747 785.732835,65.656064 789.198556,69.7936508 C792.664277,73.9312376 797.62211,76 804.072202,76 C810.426025,76 815.335723,73.9312376 818.801444,69.7936508 C822.267165,65.656064 824,60.0825747 824,53.0730159 C824,45.966102 822.267165,40.343936 818.801444,36.2063492 C815.335723,32.0687624 810.426025,30 804.072202,30 Z M938.270936,52.6779661 C944.506326,54.1469 949.353294,57.1581693 952.811987,61.7118644 C956.27068,66.2655595 958,71.5291603 958,77.5028249 C958,86.610215 955.004135,93.6365101 949.012315,98.5819209 C943.020495,103.527332 934.422607,106 923.218391,106 L869,106 L869,2 L921.756979,2 C932.279199,2 940.560451,4.30129525 946.600985,8.9039548 C952.641519,13.5066144 955.661741,20.2146452 955.661741,29.0282486 C955.661741,35.099842 954.07856,40.2165517 950.912151,44.3785311 C947.745742,48.5405105 943.532046,51.3069611 938.270936,52.6779661 Z M901,42 L913.455172,42 C916.351739,42 918.499993,41.400006 919.9,40.2 C921.300007,38.999994 922,37.1500125 922,34.65 C922,32.049987 921.300007,30.1250062 919.9,28.875 C918.499993,27.6249938 916.351739,27 913.455172,27 L901,27 L901,42 Z M915.51875,80 C918.393764,80 920.526035,79.4250058 921.915625,78.275 C923.305215,77.1249942 924,75.250013 924,72.65 C924,67.5499745 921.172945,65 915.51875,65 L901,65 L901,80 L915.51875,80 Z M1000.58716,81.3220339 L1032,81.3220339 L1032,106 L968,106 L968,2 L1000.58716,2 L1000.58716,81.3220339 Z M1074.45339,27.8531073 L1074.45339,40.779661 L1106.61441,40.779661 L1106.61441,65.3107345 L1074.45339,65.3107345 L1074.45339,80 L1111,80 L1111,106 L1042,106 L1042,2 L1111,2 L1111,27.8531073 L1074.45339,27.8531073 Z M1247,2 L1247,106 L1214.79788,106 L1214.79788,54.1468927 L1198.91539,106 L1171.23032,106 L1155.34783,54.1468927 L1155.34783,106 L1123,106 L1123,2 L1162.63337,2 L1185.36428,64.4293785 L1207.51234,2 L1247,2 Z M1328.67658,90.2824859 L1294.17723,90.2824859 L1289.0608,106 L1255,106 L1292.86158,2 L1330.28461,2 L1368,106 L1333.79301,106 L1328.67658,90.2824859 Z M1320,65 L1310.5,36 L1301,65 L1320,65 Z" id="EDITAR-PROBLEMA" fill="#FAFAFA"></path>
    </g>
</svg>