<?xml version="1.0" encoding="UTF-8"?>
<svg width="580px" height="103px" viewBox="0 0 580 103" version="1.1" xmlns="http://www.w3.org/2000/svg" xmlns:xlink="http://www.w3.org/1999/xlink">
    <!-- Generator: Sketch 52.3 (67297) - http://www.bohemiancoding.com/sketch -->
    <title>ENTRAR</title>
    <desc>Created with Sketch.</desc>
    <g id="versão-1" stroke="none" stroke-width="1" fill="none" fill-rule="evenodd">
        <path d="M32.4533898,25.6045198 L32.4533898,38.4067797 L64.6144068,38.4067797 L64.6144068,62.7019774 L32.4533898,62.7019774 L32.4533898,77.25 L69,77.25 L69,103 L0,103 L0,0 L69,0 L69,25.6045198 L32.4533898,25.6045198 Z M179,103 L146.631811,103 L112.368189,51.2090395 L112.368189,103 L80,103 L80,0 L112.368189,0 L146.631811,52.6638418 L146.631811,0 L179,0 L179,103 Z M275,0 L275,25.6045198 L247.557047,25.6045198 L247.557047,103 L215.151007,103 L215.151007,25.6045198 L188,25.6045198 L188,0 L275,0 Z M334.62,103 L315.19,66.0480226 L315.19,103 L283,103 L283,0 L330.85,0 C339.163375,0 346.268304,1.47903417 352.165,4.43714689 C358.061696,7.39525961 362.484152,11.4201723 365.4325,16.5120056 C368.380848,21.603839 369.855,27.3502505 369.855,33.7514124 C369.855,40.6375109 367.945852,46.7476193 364.1275,52.0819209 C360.309148,57.4162225 354.823369,61.2471635 347.67,63.5748588 L370,103 L334.62,103 Z M315,44 L327.736842,44 C330.824577,44 333.140343,43.3152846 334.684211,41.9458333 C336.228078,40.576382 337,38.4277924 337,35.5 C337,32.8555423 336.203955,30.7777853 334.611842,29.2666667 C333.019729,27.755548 330.728085,27 327.736842,27 L315,27 L315,44 Z M446.02458,87.4336158 L411.83053,87.4336158 L406.759379,103 L373,103 L410.52652,0 L447.61837,0 L485,103 L451.095731,103 L446.02458,87.4336158 Z M439,63 L429.5,34 L420,63 L439,63 Z M544.62,103 L525.19,66.0480226 L525.19,103 L493,103 L493,0 L540.85,0 C549.163375,0 556.268304,1.47903417 562.165,4.43714689 C568.061696,7.39525961 572.484152,11.4201723 575.4325,16.5120056 C578.380848,21.603839 579.855,27.3502505 579.855,33.7514124 C579.855,40.6375109 577.945852,46.7476193 574.1275,52.0819209 C570.309148,57.4162225 564.823369,61.2471635 557.67,63.5748588 L580,103 L544.62,103 Z M525,44 L537.736842,44 C540.824577,44 543.140343,43.3152846 544.684211,41.9458333 C546.228078,40.576382 547,38.4277924 547,35.5 C547,32.8555423 546.203955,30.7777853 544.611842,29.2666667 C543.019729,27.755548 540.728085,27 537.736842,27 L525,27 L525,44 Z" id="ENTRAR" fill="#FAFAFA"></path>
    </g>
</svg>