<?xml version="1.0" encoding="UTF-8"?>
<svg width="1042px" height="106px" viewBox="0 0 1042 106" version="1.1" xmlns="http://www.w3.org/2000/svg" xmlns:xlink="http://www.w3.org/1999/xlink">
    <!-- Generator: Sketch 52.4 (67378) - http://www.bohemiancoding.com/sketch -->
    <title>ESTATISTICAS</title>
    <desc>Created with Sketch.</desc>
    <g id="versão-1" stroke="none" stroke-width="1" fill="none" fill-rule="evenodd">
        <path d="M32.4533898,26.8531073 L32.4533898,39.779661 L64.6144068,39.779661 L64.6144068,64.3107345 L32.4533898,64.3107345 L32.4533898,79 L69,79 L69,105 L0,105 L0,1 L69,1 L69,26.8531073 L32.4533898,26.8531073 Z M162,74.5061898 C162,80.4356097 160.462978,85.7817277 157.388889,90.5447043 C154.314799,95.3076809 149.850117,99.074264 143.994709,101.844567 C138.139301,104.614869 131.16171,106 123.061728,106 C110.66778,106 100.445367,103.108236 92.3941799,97.3246217 C84.3429933,91.5410073 79.9758999,83.0601201 79.292769,71.8817056 L113.839506,71.8817056 C114.327457,77.8111255 116.962351,80.7757909 121.744268,80.7757909 C123.4033,80.7757909 124.745145,80.3383813 125.769841,79.4635488 C126.794538,78.5887164 127.306878,77.3250885 127.306878,75.6726272 C127.306878,73.2425371 126.062623,71.3227948 123.574074,69.9133425 C121.085525,68.5038902 117.059993,66.8757543 111.497354,65.0288858 C104.958815,62.8904065 99.5182463,60.7033583 95.175485,58.4676754 C90.8327237,56.2319925 87.0511625,52.9271195 83.8306878,48.5529574 C80.6102132,44.1787952 79,38.4924697 79,31.4938102 C79,24.7867615 80.732199,19.0761354 84.196649,14.3617607 C87.661099,9.64738587 92.3941499,6.07520702 98.3959436,3.64511692 C104.397737,1.21502682 111.155753,0 118.670194,0 C131.064142,0 140.920598,2.8674633 148.239859,8.60247593 C155.559119,14.3374886 159.560255,22.5996709 160.243386,33.389271 L125.257496,33.389271 C124.769545,27.9458692 122.525005,25.2242091 118.52381,25.2242091 C117.157548,25.2242091 116.035278,25.6373182 115.156966,26.4635488 C114.278655,27.2897795 113.839506,28.5291068 113.839506,30.1815681 C113.839506,32.417251 115.083762,34.2397912 117.57231,35.6492435 C120.060859,37.0586957 123.940009,38.6868317 129.209877,40.5337001 C135.846006,42.8665866 141.335369,45.1751376 145.678131,47.4594223 C150.020892,49.743707 153.82685,53.097181 157.09612,57.519945 C160.36539,61.942709 162,67.6047339 162,74.5061898 Z M254,1 L254,26.8531073 L226.557047,26.8531073 L226.557047,105 L194.151007,105 L194.151007,26.8531073 L167,26.8531073 L167,1 L254,1 Z M328.676585,89.2824859 L294.177232,89.2824859 L289.060802,105 L255,105 L292.861578,1 L330.284605,1 L368,105 L333.793014,105 L328.676585,89.2824859 Z M321,65 L311.5,36 L302,65 L321,65 Z M456,1 L456,26.8531073 L428.557047,26.8531073 L428.557047,105 L396.151007,105 L396.151007,26.8531073 L369,26.8531073 L369,1 L456,1 Z M497,1 L497,105 L465,105 L465,1 L497,1 Z M592,74.5061898 C592,80.4356097 590.462978,85.7817277 587.388889,90.5447043 C584.314799,95.3076809 579.850117,99.074264 573.994709,101.844567 C568.139301,104.614869 561.16171,106 553.061728,106 C540.66778,106 530.445367,103.108236 522.39418,97.3246217 C514.342993,91.5410073 509.9759,83.0601201 509.292769,71.8817056 L543.839506,71.8817056 C544.327457,77.8111255 546.962351,80.7757909 551.744268,80.7757909 C553.4033,80.7757909 554.745145,80.3383813 555.769841,79.4635488 C556.794538,78.5887164 557.306878,77.3250885 557.306878,75.6726272 C557.306878,73.2425371 556.062623,71.3227948 553.574074,69.9133425 C551.085525,68.5038902 547.059993,66.8757543 541.497354,65.0288858 C534.958815,62.8904065 529.518246,60.7033583 525.175485,58.4676754 C520.832724,56.2319925 517.051162,52.9271195 513.830688,48.5529574 C510.610213,44.1787952 509,38.4924697 509,31.4938102 C509,24.7867615 510.732199,19.0761354 514.196649,14.3617607 C517.661099,9.64738587 522.39415,6.07520702 528.395944,3.64511692 C534.397737,1.21502682 541.155753,0 548.670194,0 C561.064142,0 570.920598,2.8674633 578.239859,8.60247593 C585.559119,14.3374886 589.560255,22.5996709 590.243386,33.389271 L555.257496,33.389271 C554.769545,27.9458692 552.525005,25.2242091 548.52381,25.2242091 C547.157548,25.2242091 546.035278,25.6373182 545.156966,26.4635488 C544.278655,27.2897795 543.839506,28.5291068 543.839506,30.1815681 C543.839506,32.417251 545.083762,34.2397912 547.57231,35.6492435 C550.060859,37.0586957 553.940009,38.6868317 559.209877,40.5337001 C565.846006,42.8665866 571.335369,45.1751376 575.678131,47.4594223 C580.020892,49.743707 583.82685,53.097181 587.09612,57.519945 C590.36539,61.942709 592,67.6047339 592,74.5061898 Z M684,1 L684,26.8531073 L656.557047,26.8531073 L656.557047,105 L624.151007,105 L624.151007,26.8531073 L597,26.8531073 L597,1 L684,1 Z M725,1 L725,105 L693,105 L693,1 L725,1 Z M788.010101,1 C796.949059,1 804.940561,2.67706656 811.984848,6.03125 C819.029136,9.38543344 824.761642,14.1249694 829.18254,20.25 C833.603437,26.3750306 836.542561,33.5207925 838,41.6875 L803.896104,41.6875 C802.341503,38.2847052 800.131087,35.6354261 797.264791,33.7395833 C794.398495,31.8437405 791.119307,30.8958333 787.427128,30.8958333 C781.986024,30.8958333 777.686644,32.9374796 774.52886,37.0208333 C771.371076,41.1041871 769.792208,46.5971877 769.792208,53.5 C769.792208,60.4028123 771.371076,65.8958129 774.52886,69.9791667 C777.686644,74.0625204 781.986024,76.1041667 787.427128,76.1041667 C791.119307,76.1041667 794.398495,75.1562595 797.264791,73.2604167 C800.131087,71.3645739 802.341503,68.7152948 803.896104,65.3125 L838,65.3125 C836.542561,73.4792075 833.603437,80.6249694 829.18254,86.75 C824.761642,92.8750306 819.029136,97.6145666 811.984848,100.96875 C804.940561,104.322933 796.949059,106 788.010101,106 C777.613705,106 768.57772,103.788217 760.901876,99.3645833 C753.226032,94.9409501 747.323493,88.7430954 743.194084,80.7708333 C739.064674,72.7985713 737,63.7083844 737,53.5 C737,43.2916156 739.064674,34.2014287 743.194084,26.2291667 C747.323493,18.2569046 753.226032,12.0590499 760.901876,7.63541667 C768.57772,3.21178344 777.613705,1 788.010101,1 Z M915.676585,89.2824859 L881.177232,89.2824859 L876.060802,105 L842,105 L879.861578,1 L917.284605,1 L955,105 L920.793014,105 L915.676585,89.2824859 Z M908,65 L898.5,36 L889,65 L908,65 Z M1042,74.5061898 C1042,80.4356097 1040.46298,85.7817277 1037.38889,90.5447043 C1034.3148,95.3076809 1029.85012,99.074264 1023.99471,101.844567 C1018.1393,104.614869 1011.16171,106 1003.06173,106 C990.66778,106 980.445367,103.108236 972.39418,97.3246217 C964.342993,91.5410073 959.9759,83.0601201 959.292769,71.8817056 L993.839506,71.8817056 C994.327457,77.8111255 996.962351,80.7757909 1001.74427,80.7757909 C1003.4033,80.7757909 1004.74514,80.3383813 1005.76984,79.4635488 C1006.79454,78.5887164 1007.30688,77.3250885 1007.30688,75.6726272 C1007.30688,73.2425371 1006.06262,71.3227948 1003.57407,69.9133425 C1001.08553,68.5038902 997.059993,66.8757543 991.497354,65.0288858 C984.958815,62.8904065 979.518246,60.7033583 975.175485,58.4676754 C970.832724,56.2319925 967.051162,52.9271195 963.830688,48.5529574 C960.610213,44.1787952 959,38.4924697 959,31.4938102 C959,24.7867615 960.732199,19.0761354 964.196649,14.3617607 C967.661099,9.64738587 972.39415,6.07520702 978.395944,3.64511692 C984.397737,1.21502682 991.155753,0 998.670194,0 C1011.06414,0 1020.9206,2.8674633 1028.23986,8.60247593 C1035.55912,14.3374886 1039.56026,22.5996709 1040.24339,33.389271 L1005.2575,33.389271 C1004.76954,27.9458692 1002.52501,25.2242091 998.52381,25.2242091 C997.157548,25.2242091 996.035278,25.6373182 995.156966,26.4635488 C994.278655,27.2897795 993.839506,28.5291068 993.839506,30.1815681 C993.839506,32.417251 995.083762,34.2397912 997.57231,35.6492435 C1000.06086,37.0586957 1003.94001,38.6868317 1009.20988,40.5337001 C1015.84601,42.8665866 1021.33537,45.1751376 1025.67813,47.4594223 C1030.02089,49.743707 1033.82685,53.097181 1037.09612,57.519945 C1040.36539,61.942709 1042,67.6047339 1042,74.5061898 Z" id="ESTATISTICAS" fill="#FAFAFA"></path>
    </g>
</svg>