<?xml version="1.0" encoding="UTF-8"?>
<svg width="1146px" height="125px" viewBox="0 0 1146 125" version="1.1" xmlns="http://www.w3.org/2000/svg" xmlns:xlink="http://www.w3.org/1999/xlink">
    <!-- Generator: Sketch 52.4 (67378) - http://www.bohemiancoding.com/sketch -->
    <title>INTERVENÇÕES</title>
    <desc>Created with Sketch.</desc>
    <g id="versão-1" stroke="none" stroke-width="1" fill="none" fill-rule="evenodd">
        <path d="M33,1 L33,106 L0,106 L0,1 L33,1 Z M150,106 L116.977909,106 L82.0220913,53.2033898 L82.0220913,106 L49,106 L49,1 L82.0220913,1 L116.977909,54.6864407 L116.977909,1 L150,1 L150,106 Z M248,1 L248,27.1016949 L219.926174,27.1016949 L219.926174,106 L186.775168,106 L186.775168,27.1016949 L159,27.1016949 L159,1 L248,1 Z M289.394068,27.1016949 L289.394068,40.1525424 L322.487288,40.1525424 L322.487288,64.9194915 L289.394068,64.9194915 L289.394068,79.75 L327,79.75 L327,106 L256,106 L256,1 L327,1 L327,27.1016949 L289.394068,27.1016949 Z M392.806667,106 L372.93,68.3305085 L372.93,106 L340,106 L340,1 L388.95,1 C397.454487,1 404.722748,2.50775328 410.755,5.52330508 C416.787252,8.53885689 421.311374,12.6419232 424.3275,17.8326271 C427.343626,23.023331 428.851667,28.8813233 428.851667,35.4067797 C428.851667,42.4265888 426.898631,48.65534 422.9925,54.0932203 C419.086369,59.5311006 413.474481,63.4364288 406.156667,65.809322 L429,106 L392.806667,106 Z M373,48 L385.736842,48 C388.824577,48 391.140343,47.2750073 392.684211,45.825 C394.228078,44.3749927 395,42.1000155 395,39 C395,36.199986 394.203955,34.000008 392.611842,32.4 C391.019729,30.799992 388.728085,30 385.736842,30 L373,30 L373,48 Z M466.951507,1 L488.57405,73.2245763 L510.048493,1 L545,1 L509.752294,106 L467.247706,106 L432,1 L466.951507,1 Z M587.394068,27.1016949 L587.394068,40.1525424 L620.487288,40.1525424 L620.487288,64.9194915 L587.394068,64.9194915 L587.394068,79.75 L625,79.75 L625,106 L554,106 L554,1 L625,1 L625,27.1016949 L587.394068,27.1016949 Z M737,106 L703.977909,106 L669.022091,53.2033898 L669.022091,106 L636,106 L636,1 L669.022091,1 L703.977909,54.6864407 L703.977909,1 L737,1 L737,106 Z M829.874211,100.089945 C830.624739,102.10307 831,104.408813 831,107.007194 C831,113.398113 828.77092,117.99459 824.312693,120.796763 C819.854467,123.598935 814.65328,125 808.708978,125 L783,125 L783,108.334532 L805.291022,108.334532 C806.479882,108.334532 807.421049,108.113312 808.114551,107.670863 C808.568743,107.381093 808.874202,107.03861 809.030931,106.643409 C806.761219,106.881137 804.424311,107 802.020202,107 C791.417936,107 782.203021,104.746087 774.37518,100.238194 C766.547339,95.7303015 760.527919,89.4143925 756.316739,81.2902778 C752.105559,73.1661631 750,63.9028298 750,53.5 C750,43.0971702 752.105559,33.8338369 756.316739,25.7097222 C760.527919,17.5856075 766.547339,11.2696985 774.37518,6.76180556 C782.203021,2.25391265 791.417936,0 802.020202,0 C811.136169,0 819.285919,1.70901069 826.469697,5.12708333 C833.653475,8.54515598 839.499496,13.3749688 844.007937,19.6166667 C848.516377,25.8583645 851.513701,33.1402362 853,41.4625 L818.220779,41.4625 C816.635394,37.9948901 814.381207,35.2951485 811.458153,33.3631944 C808.535098,31.4312403 805.190976,30.4652778 801.425685,30.4652778 C795.876836,30.4652778 791.49232,32.5458125 788.272006,36.7069444 C785.051691,40.8680764 783.441558,46.4657056 783.441558,53.5 C783.441558,60.5342944 785.051691,66.1319236 788.272006,70.2930556 C791.49232,74.4541875 795.876836,76.5347222 801.425685,76.5347222 C805.190976,76.5347222 808.535098,75.5687597 811.458153,73.6368056 C814.381207,71.7048515 816.635394,69.0051099 818.220779,65.5375 L853,65.5375 C851.513701,73.8597638 848.516377,81.1416355 844.007937,87.3833333 C840.233988,92.6081664 835.522781,96.8436751 829.874211,100.089945 Z M915.649725,0 C925.63146,0 934.764611,2.30259045 943.049451,6.90784044 C951.334291,11.5130904 957.897183,17.925681 962.738324,26.1458047 C967.579466,34.3659283 970,43.6258082 970,53.9257221 C970,64.2256361 967.579466,73.485516 962.738324,81.7056396 C957.897183,89.9257632 951.309337,96.3631129 942.974588,101.017882 C934.639839,105.672651 925.531643,108 915.649725,108 C905.66799,108 896.509886,105.672651 888.175137,101.017882 C879.840389,96.3631129 873.227589,89.9257632 868.336538,81.7056396 C863.445488,73.485516 861,64.2256361 861,53.9257221 C861,43.6258082 863.445488,34.3659283 868.336538,26.1458047 C873.227589,17.925681 879.840389,11.5130904 888.175137,6.90784044 C896.509886,2.30259045 905.66799,0 915.649725,0 Z M915.574007,30 C908.962662,30 903.880884,32.1587086 900.32852,36.4761905 C896.776156,40.7936724 895,46.6602804 895,54.0761905 C895,61.3905128 896.776156,67.2063276 900.32852,71.5238095 C903.880884,75.8412914 908.962662,78 915.574007,78 C922.086675,78 927.119116,75.8412914 930.67148,71.5238095 C934.223844,67.2063276 936,61.3905128 936,54.0761905 C936,46.6602804 934.223844,40.7936724 930.67148,36.4761905 C927.119116,32.1587086 922.086675,30 915.574007,30 Z M1015.39407,27.1016949 L1015.39407,40.1525424 L1048.48729,40.1525424 L1048.48729,64.9194915 L1015.39407,64.9194915 L1015.39407,79.75 L1053,79.75 L1053,106 L982,106 L982,1 L1053,1 L1053,27.1016949 L1015.39407,27.1016949 Z M1146,75.911967 C1146,81.9532627 1144.44446,87.4002508 1141.33333,92.2530949 C1138.22221,97.105939 1133.70373,100.94359 1127.77778,103.766162 C1121.85182,106.588735 1114.79016,108 1106.59259,108 C1094.04932,108 1083.70374,105.053675 1075.55556,99.1609354 C1067.40737,93.2681961 1062.98766,84.6272922 1062.2963,73.2379642 L1097.25926,73.2379642 C1097.75309,79.2792599 1100.41973,82.2998624 1105.25926,82.2998624 C1106.93828,82.2998624 1108.29629,81.8541998 1109.33333,80.9628611 C1110.37038,80.0715224 1110.88889,78.7840524 1110.88889,77.1004127 C1110.88889,74.6244718 1109.62964,72.6685079 1107.11111,71.2324622 C1104.59258,69.7964165 1100.51855,68.137561 1094.88889,66.2558459 C1088.27157,64.077018 1082.76545,61.8487046 1078.37037,59.5708391 C1073.97529,57.2929735 1070.14816,53.9257444 1066.88889,49.4690509 C1063.62961,45.0123574 1062,39.2187427 1062,32.088033 C1062,25.2544363 1063.75307,19.4360625 1067.25926,14.6327373 C1070.76545,9.82941202 1075.55553,6.18983356 1081.62963,3.71389271 C1087.70373,1.23795186 1094.54317,0 1102.14815,0 C1114.69142,0 1124.66663,2.92156638 1132.07407,8.7647868 C1139.48152,14.6080072 1143.53086,23.0260798 1144.22222,34.0192572 L1108.81481,34.0192572 C1108.32099,28.4731497 1106.0494,25.7001376 1102,25.7001376 C1100.61728,25.7001376 1099.48149,26.1210412 1098.59259,26.9628611 C1097.7037,27.804681 1097.25926,29.0673919 1097.25926,30.7510316 C1097.25926,33.0288972 1098.51851,34.885825 1101.03704,36.3218707 C1103.55557,37.7579164 1107.48145,39.4167719 1112.81481,41.2984869 C1119.5309,43.6753902 1125.0864,46.0274987 1129.48148,48.3548831 C1133.87657,50.6822675 1137.72838,54.0990146 1141.03704,58.605227 C1144.3457,63.1114393 1146,68.880295 1146,75.911967 Z" id="INTERVENÇÕES" fill="#FAFAFA"></path>
    </g>
</svg>