<?xml version="1.0" encoding="UTF-8"?>
<svg width="1025px" height="106px" viewBox="0 0 1025 106" version="1.1" xmlns="http://www.w3.org/2000/svg" xmlns:xlink="http://www.w3.org/1999/xlink">
    <!-- Generator: Sketch 52.3 (67297) - http://www.bohemiancoding.com/sketch -->
    <title>Group 3</title>
    <desc>Created with Sketch.</desc>
    <g id="versão-1" stroke="none" stroke-width="1" fill="none" fill-rule="evenodd">
        <g id="problems-page-v1.0" transform="translate(-40.000000, -32.000000)" fill="#FAFAFA">
            <g id="Group-3" transform="translate(40.000000, 32.000000)">
                <path d="M170.207254,72.2669492 L170.207254,105 L138,105 L138,2 L182.974093,2 C195.547559,2 205.19513,5.20053297 211.917098,11.6016949 C218.639066,18.0028569 222,26.5861044 222,37.3516949 C222,43.8498442 220.500879,49.7417344 217.502591,55.0275424 C214.504303,60.3133503 210.079477,64.5079882 204.227979,67.6115819 C198.376482,70.7151756 191.291924,72.2669492 182.974093,72.2669492 L170.207254,72.2669492 Z M179.068182,46 C185.689427,46 189,42.833365 189,36.5 C189,30.166635 185.689427,27 179.068182,27 L170,27 L170,46 L179.068182,46 Z M283.62,105 L264.19,68.0480226 L264.19,105 L232,105 L232,2 L279.85,2 C288.163375,2 295.268304,3.47903417 301.165,6.43714689 C307.061696,9.39525961 311.484152,13.4201723 314.4325,18.5120056 C317.380848,23.603839 318.855,29.3502505 318.855,35.7514124 C318.855,42.6375109 316.945852,48.7476193 313.1275,54.0819209 C309.309148,59.4162225 303.823369,63.2471635 296.67,65.5748588 L319,105 L283.62,105 Z M264,46 L276.736842,46 C279.824577,46 282.140343,45.3152846 283.684211,43.9458333 C285.228078,42.576382 286,40.4277924 286,37.5 C286,34.8555423 285.203955,32.7777853 283.611842,31.2666667 C282.019729,29.755548 279.728085,29 276.736842,29 L264,29 L264,46 Z M379.145604,0 C388.852613,0 397.734392,2.23862961 405.791209,6.71595598 C413.848026,11.1932824 420.230288,17.4277455 424.938187,25.4195323 C429.646086,33.4113192 432,42.4139802 432,52.4277854 C432,62.4415906 429.646086,71.4442517 424.938187,79.4360385 C420.230288,87.4278254 413.823758,93.6863598 405.718407,98.2118294 C397.613055,102.737299 388.755543,105 379.145604,105 C369.438596,105 360.53255,102.737299 352.427198,98.2118294 C344.321846,93.6863598 337.891049,87.4278254 333.134615,79.4360385 C328.378181,71.4442517 326,62.4415906 326,52.4277854 C326,42.4139802 328.378181,33.4113192 333.134615,25.4195323 C337.891049,17.4277455 344.321846,11.1932824 352.427198,6.71595598 C360.53255,2.23862961 369.438596,0 379.145604,0 Z M379.072202,30 C372.62211,30 367.664277,32.0687624 364.198556,36.2063492 C360.732835,40.343936 359,45.966102 359,53.0730159 C359,60.0825747 360.732835,65.656064 364.198556,69.7936508 C367.664277,73.9312376 372.62211,76 379.072202,76 C385.426025,76 390.335723,73.9312376 393.801444,69.7936508 C397.267165,65.656064 399,60.0825747 399,53.0730159 C399,45.966102 397.267165,40.343936 393.801444,36.2063492 C390.335723,32.0687624 385.426025,30 379.072202,30 Z M511.492611,52.190678 C517.65794,53.6454875 522.450448,56.6278023 525.870279,61.1377119 C529.29011,65.6476214 531,70.8606107 531,76.7768362 C531,85.7966553 528.037796,92.7553898 522.1133,97.6532486 C516.188805,102.551107 507.687521,105 496.609195,105 L443,105 L443,2 L495.164204,2 C505.568197,2 513.756401,4.27916742 519.729064,8.83757062 C525.701727,13.3959738 528.688013,20.0395044 528.688013,28.7683616 C528.688013,34.7815743 527.122621,39.8490849 523.99179,43.9710452 C520.860959,48.0930055 516.694607,50.8328557 511.492611,52.190678 Z M475,42 L487.455172,42 C490.351739,42 492.499993,41.4400056 493.9,40.32 C495.300007,39.1999944 496,37.473345 496,35.14 C496,32.7133212 495.300007,30.9166725 493.9,29.75 C492.499993,28.5833275 490.351739,28 487.455172,28 L475,28 L475,42 Z M489.51875,78 C492.393764,78 494.526035,77.4633387 495.915625,76.39 C497.305215,75.3166613 498,73.5666788 498,71.14 C498,66.3799762 495.172945,64 489.51875,64 L475,64 L475,78 L489.51875,78 Z M574.077982,80.559322 L605,80.559322 L605,105 L542,105 L542,2 L574.077982,2 L574.077982,80.559322 Z M647.983051,27.6045198 L647.983051,40.4067797 L679.677966,40.4067797 L679.677966,64.7019774 L647.983051,64.7019774 L647.983051,79.25 L684,79.25 L684,105 L616,105 L616,2 L684,2 L684,27.6045198 L647.983051,27.6045198 Z M819,2 L819,105 L787.057579,105 L787.057579,53.6454802 L771.303173,105 L743.841363,105 L728.086957,53.6454802 L728.086957,105 L696,105 L696,2 L735.313749,2 L757.86134,63.829096 L779.830787,2 L819,2 Z M900.02458,89.4336158 L865.83053,89.4336158 L860.759379,105 L827,105 L864.52652,2 L901.61837,2 L939,105 L905.095731,105 L900.02458,89.4336158 Z M892,65 L882.5,36 L873,65 L892,65 Z M1025,73.8033012 C1025,79.6767831 1023.4815,84.9724661 1020.44444,89.6905089 C1017.40739,94.4085518 1012.9965,98.1396011 1007.21164,100.883769 C1001.42678,103.627937 994.533256,105 986.530864,105 C974.286241,105 964.186989,102.135517 956.232804,96.4064649 C948.27862,90.6774129 943.964142,82.276534 943.289242,71.2035763 L977.419753,71.2035763 C977.901825,77.0770583 980.504973,80.0137552 985.229277,80.0137552 C986.868321,80.0137552 988.193998,79.580472 989.206349,78.7138927 C990.2187,77.8473134 990.724868,76.5956065 990.724868,74.9587345 C990.724868,72.5515698 989.495603,70.6499382 987.037037,69.2537827 C984.578471,67.8576271 980.601438,66.244851 975.10582,64.4154058 C968.646058,62.2971008 963.271039,60.1306851 958.9806,57.9160935 C954.690161,55.701502 950.954161,52.4278071 947.772487,48.0949106 C944.590813,43.7620141 943,38.1293331 943,31.1966988 C943,24.5529241 944.711329,18.8961719 948.134039,14.2262724 C951.556748,9.5563728 956.232775,6.01789374 962.162257,3.61072902 C968.09174,1.20356431 974.768334,0 982.19224,0 C994.436863,0 1004.17457,2.84041176 1011.40564,8.5213205 C1018.63672,14.2022292 1022.58965,22.3864665 1023.26455,33.0742779 L988.700176,33.0742779 C988.218105,27.6822289 986.000608,24.9862448 982.047619,24.9862448 C980.697818,24.9862448 979.58907,25.3954567 978.72134,26.2138927 C977.853611,27.0323287 977.419753,28.2599643 977.419753,29.8968363 C977.419753,32.1114279 978.649018,33.9167743 981.107584,35.3129298 C983.56615,36.7090854 987.398563,38.3218616 992.604938,40.1513067 C999.161114,42.4621849 1004.58434,44.748957 1008.87478,47.0116919 C1013.16522,49.2744267 1016.92532,52.5962642 1020.1552,56.977304 C1023.38508,61.3583438 1025,66.9669534 1025,73.8033012 Z" id="PROBBLEMAS"></path>
                <path d="M-29.8440367,59.5932203 L-21.5,59.5932203 L-21.5,66 L-38.5,66 L-38.5,39 L-29.8440367,39 L-29.8440367,59.5932203 Z M-11,38.5 L-11,65.5 L-19,65.5 L-19,38.5 L-11,38.5 Z M12.5,57.9779917 C12.5,59.4883157 12.111115,60.8500627 11.3333333,62.0632737 C10.5555517,63.2764847 9.42593333,64.2358974 7.94444444,64.9415406 C6.46295556,65.6471837 4.69754111,66 2.64814815,66 C-0.48767,66 -3.07406389,65.2634186 -5.11111111,63.7902338 C-7.14815833,62.317049 -8.25308556,60.156823 -8.42592593,57.3094911 L0.314814815,57.3094911 C0.438272222,58.819815 1.10493222,59.5749656 2.31481481,59.5749656 C2.73457,59.5749656 3.07407278,59.4635499 3.33333333,59.2407153 C3.59259389,59.0178806 3.72222222,58.6960131 3.72222222,58.2751032 C3.72222222,57.656118 3.40741056,57.167127 2.77777778,56.8081155 C2.148145,56.4491041 1.12963667,56.0343902 -0.277777778,55.5639615 C-1.93210704,55.0192545 -3.30863648,54.4621762 -4.40740741,53.8927098 C-5.50617833,53.3232434 -6.46295889,52.4814361 -7.27777778,51.3672627 C-8.09259667,50.2530893 -8.5,48.8046857 -8.5,47.0220083 C-8.5,45.3136091 -8.06173278,43.8590156 -7.18518519,42.6581843 C-6.30863759,41.457353 -5.1111187,40.5474584 -3.59259259,39.9284732 C-2.07406648,39.309488 -0.364207037,39 1.53703704,39 C4.67285519,39 7.16665741,39.7303916 9.01851852,41.1911967 C10.8703796,42.6520018 11.8827152,44.75652 12.0555556,47.5048143 L3.2037037,47.5048143 C3.0802463,46.1182874 2.51235074,45.4250344 1.5,45.4250344 C1.15431926,45.4250344 0.870371481,45.5302603 0.648148148,45.7407153 C0.425924815,45.9511702 0.314814815,46.266848 0.314814815,46.6877579 C0.314814815,47.2572243 0.629626481,47.7214563 1.25925926,48.0804677 C1.88889204,48.4394791 2.8703637,48.854193 4.2037037,49.3246217 C5.88272444,49.9188475 7.27159944,50.5068747 8.37037037,51.0887208 C9.4691413,51.6705669 10.4320946,52.5247537 11.2592593,53.6513067 C12.0864239,54.7778598 12.5,56.2200737 12.5,57.9779917 Z M37,39.5 L37,46.2118644 L30.0604027,46.2118644 L30.0604027,66.5 L21.8657718,66.5 L21.8657718,46.2118644 L15,46.2118644 L15,39.5 L37,39.5 Z M56.4081501,61.9194915 L47.5543338,61.9194915 L46.2412678,66 L37.5,66 L47.2166882,39 L56.8208279,39 L66.5,66 L57.721216,66 L56.4081501,61.9194915 Z M54.5,55 L52,48 L49.5,55 L54.5,55 Z" id="LISTA" transform="translate(14.000000, 52.500000) rotate(-90.000000) translate(-14.000000, -52.500000) "></path>
                <path d="M83.3169121,48.6749618 C89.7857253,48.6749618 95.6139745,49.959733 100.801835,52.5293139 C105.989695,55.0988949 110.072672,58.7676305 113.050887,63.5356307 C116.029103,68.3036309 117.518189,73.8566976 117.518189,80.1949973 L117.518189,105.462417 L49.4999191,105.462417 L49.4999191,80.1949973 C49.4999191,73.8566976 50.9409698,68.3036309 53.8231143,63.5356307 C56.7052587,58.7676305 60.7081772,55.0988949 65.8319896,52.5293139 C70.955802,49.959733 76.7840513,48.6749618 83.3169121,48.6749618 Z M99.7742926,81.8886124 L99.7742926,86.5332654 L67.2438156,86.5332654 L67.2438156,81.8886124 C67.2438156,77.5068424 68.6507104,74.0306903 71.4645421,71.4600519 C74.2783738,68.8894135 78.293171,67.6041136 83.5090541,67.6041136 C88.7249373,67.6041136 92.7397345,68.8894135 95.5535662,71.4600519 C98.3673979,74.0306903 99.7742926,77.5068424 99.7742926,81.8886124 Z M66.4084156,21.4843581 L74.8626639,21.4843581 L74.8626639,2.57812297 L90.9065213,2.57812297 L90.9065213,21.4843581 L100.513622,21.4843581 L100.513622,-3.7829003e-14 L117.518189,-4.26325641e-14 L117.518189,40.5624681 L49.4999191,40.5624681 L49.4999191,-4.26325641e-14 L66.4084156,-4.26325641e-14 L66.4084156,21.4843581 Z" id="DE"></path>
            </g>
        </g>
    </g>
</svg>