<?xml version="1.0" encoding="UTF-8"?>
<svg width="459px" height="105px" viewBox="0 0 459 105" version="1.1" xmlns="http://www.w3.org/2000/svg" xmlns:xlink="http://www.w3.org/1999/xlink">
    <!-- Generator: Sketch 52.4 (67378) - http://www.bohemiancoding.com/sketch -->
    <title>MAPA</title>
    <desc>Created with Sketch.</desc>
    <g id="versão-1" stroke="none" stroke-width="1" fill="none" fill-rule="evenodd">
        <path d="M126,0 L126,105 L93.2784959,105 L93.2784959,52.6483051 L77.1398355,105 L49.0082256,105 L32.8695652,52.6483051 L32.8695652,105 L0,105 L0,0 L40.2726204,0 L63.3701528,63.029661 L85.8754407,0 L126,0 Z M207.980595,89.1313559 L172.870634,89.1313559 L167.663648,105 L133,105 L171.531695,0 L209.617076,0 L248,105 L213.187581,105 L207.980595,89.1313559 Z M200,64 L190.5,35 L181,64 L200,64 Z M288.974093,71.6313559 L288.974093,105 L256,105 L256,0 L302.044905,0 C314.917739,0 324.795015,3.26267924 331.677029,9.78813559 C338.559044,16.3135919 342,25.0635044 342,36.0381356 C342,42.6624625 340.465185,48.6687584 337.395509,54.0572034 C334.325834,59.4456484 329.795655,63.7217356 323.804836,66.8855932 C317.814017,70.0494508 310.560779,71.6313559 302.044905,71.6313559 L288.974093,71.6313559 Z M297.545455,45 C304.515186,45 308,41.833365 308,35.5 C308,29.166635 304.515186,26 297.545455,26 L288,26 L288,45 L297.545455,45 Z M418.980595,89.1313559 L383.870634,89.1313559 L378.663648,105 L344,105 L382.531695,0 L420.617076,0 L459,105 L424.187581,105 L418.980595,89.1313559 Z M411,64 L401.5,35 L392,64 L411,64 Z" id="MAPA" fill="#FAFAFA"></path>
    </g>
</svg>