<?xml version="1.0" encoding="UTF-8"?>
<svg width="809px" height="105px" viewBox="0 0 809 105" version="1.1" xmlns="http://www.w3.org/2000/svg" xmlns:xlink="http://www.w3.org/1999/xlink">
    <!-- Generator: Sketch 52.3 (67297) - http://www.bohemiancoding.com/sketch -->
    <title>REGISTRAR</title>
    <desc>Created with Sketch.</desc>
    <g id="versão-1" stroke="none" stroke-width="1" fill="none" fill-rule="evenodd">
        <path d="M51.62,105 L32.19,68.0480226 L32.19,105 L0,105 L0,2 L47.85,2 C56.1633749,2 63.2683038,3.47903417 69.165,6.43714689 C75.0616961,9.39525961 79.4841519,13.4201723 82.4325,18.5120056 C85.3808481,23.603839 86.855,29.3502505 86.855,35.7514124 C86.855,42.6375109 84.9458524,48.7476193 81.1275,54.0819209 C77.3091476,59.4162225 71.8233691,63.2471635 64.67,65.5748588 L87,105 L51.62,105 Z M33,47 L45.7368421,47 C48.8245768,47 51.1403432,46.2750073 52.6842105,44.825 C54.2280779,43.3749928 55,41.1000155 55,38 C55,35.199986 54.2039553,33.000008 52.6118421,31.4 C51.0197289,29.799992 48.7280851,29 45.7368421,29 L33,29 L33,47 Z M128.45339,27.6045198 L128.45339,40.4067797 L160.614407,40.4067797 L160.614407,64.7019774 L128.45339,64.7019774 L128.45339,79.25 L165,79.25 L165,105 L96,105 L96,2 L165,2 L165,27.6045198 L128.45339,27.6045198 Z M225.734104,0 C239.125308,0 250.035603,3.25691187 258.465318,9.77083333 C266.895033,16.2847548 271.880532,25.1318885 273.421965,36.3125 L239.606936,36.3125 C238.354522,34.2708231 236.572266,32.6909778 234.260116,31.5729167 C231.947965,30.4548555 229.154159,29.8958333 225.878613,29.8958333 C219.712879,29.8958333 214.94414,31.9131743 211.572254,35.9479167 C208.200368,39.9826591 206.514451,45.499965 206.514451,52.5 C206.514451,60.5694848 208.393045,66.5972023 212.150289,70.5833333 C215.907533,74.5694644 221.687822,76.5625 229.491329,76.5625 C236.909478,76.5625 242.882444,73.5486413 247.410405,67.5208333 L221.83237,67.5208333 L221.83237,44.625 L274,44.625 L274,77 C269.568379,84.680594 263.450906,91.2673336 255.647399,96.7604167 C247.843892,102.2535 237.969231,105 226.023121,105 C215.425766,105 206.201388,102.788217 198.349711,98.3645833 C190.498034,93.9409501 184.4769,87.7430954 180.286127,79.7708333 C176.095355,71.7985713 174,62.7083844 174,52.5 C174,42.2916156 176.095355,33.2014287 180.286127,25.2291667 C184.4769,17.2569046 190.473949,11.0590499 198.277457,6.63541667 C206.080964,2.21178344 215.233088,0 225.734104,0 Z M318,2 L318,105 L286,105 L286,2 L318,2 Z M412,73.8033012 C412,79.6767831 410.481497,84.9724661 407.444444,89.6905089 C404.407392,94.4085518 399.996502,98.1396011 394.21164,100.883769 C388.426779,103.627937 381.533256,105 373.530864,105 C361.286241,105 351.186989,102.135517 343.232804,96.4064649 C335.27862,90.6774129 330.964142,82.276534 330.289242,71.2035763 L364.419753,71.2035763 C364.901825,77.0770583 367.504973,80.0137552 372.229277,80.0137552 C373.868321,80.0137552 375.193998,79.580472 376.206349,78.7138927 C377.2187,77.8473134 377.724868,76.5956065 377.724868,74.9587345 C377.724868,72.5515698 376.495603,70.6499382 374.037037,69.2537827 C371.578471,67.8576271 367.601438,66.244851 362.10582,64.4154058 C355.646058,62.2971008 350.271039,60.1306851 345.9806,57.9160935 C341.690161,55.701502 337.954161,52.4278071 334.772487,48.0949106 C331.590813,43.7620141 330,38.1293331 330,31.1966988 C330,24.5529241 331.711329,18.8961719 335.134039,14.2262724 C338.556748,9.5563728 343.232775,6.01789374 349.162257,3.61072902 C355.09174,1.20356431 361.768334,0 369.19224,0 C381.436863,0 391.174567,2.84041176 398.405644,8.5213205 C405.63672,14.2022292 409.58965,22.3864665 410.26455,33.0742779 L375.700176,33.0742779 C375.218105,27.6822289 373.000608,24.9862448 369.047619,24.9862448 C367.697818,24.9862448 366.58907,25.3954567 365.72134,26.2138927 C364.853611,27.0323287 364.419753,28.2599643 364.419753,29.8968363 C364.419753,32.1114279 365.649018,33.9167743 368.107584,35.3129298 C370.56615,36.7090854 374.398563,38.3218616 379.604938,40.1513067 C386.161114,42.4621849 391.584341,44.748957 395.87478,47.0116919 C400.165218,49.2744267 403.925322,52.5962642 407.155203,56.977304 C410.385084,61.3583438 412,66.9669534 412,73.8033012 Z M505,2 L505,27.6045198 L477.557047,27.6045198 L477.557047,105 L445.151007,105 L445.151007,27.6045198 L418,27.6045198 L418,2 L505,2 Z M564.62,105 L545.19,68.0480226 L545.19,105 L513,105 L513,2 L560.85,2 C569.163375,2 576.268304,3.47903417 582.165,6.43714689 C588.061696,9.39525961 592.484152,13.4201723 595.4325,18.5120056 C598.380848,23.603839 599.855,29.3502505 599.855,35.7514124 C599.855,42.6375109 597.945852,48.7476193 594.1275,54.0819209 C590.309148,59.4162225 584.823369,63.2471635 577.67,65.5748588 L600,105 L564.62,105 Z M545,47 L557.736842,47 C560.824577,47 563.140343,46.2750073 564.684211,44.825 C566.228078,43.3749928 567,41.1000155 567,38 C567,35.199986 566.203955,33.000008 564.611842,31.4 C563.019729,29.799992 560.728085,29 557.736842,29 L545,29 L545,47 Z M675.02458,89.4336158 L640.83053,89.4336158 L635.759379,105 L602,105 L639.52652,2 L676.61837,2 L714,105 L680.095731,105 L675.02458,89.4336158 Z M667,64 L657.5,35 L648,64 L667,64 Z M773.62,105 L754.19,68.0480226 L754.19,105 L722,105 L722,2 L769.85,2 C778.163375,2 785.268304,3.47903417 791.165,6.43714689 C797.061696,9.39525961 801.484152,13.4201723 804.4325,18.5120056 C807.380848,23.603839 808.855,29.3502505 808.855,35.7514124 C808.855,42.6375109 806.945852,48.7476193 803.1275,54.0819209 C799.309148,59.4162225 793.823369,63.2471635 786.67,65.5748588 L809,105 L773.62,105 Z M753,47 L765.736842,47 C768.824577,47 771.140343,46.2750073 772.684211,44.825 C774.228078,43.3749928 775,41.1000155 775,38 C775,35.199986 774.203955,33.000008 772.611842,31.4 C771.019729,29.799992 768.728085,29 765.736842,29 L753,29 L753,47 Z" id="REGISTRAR" fill="#FAFAFA"></path>
    </g>
</svg>