<?xml version="1.0" encoding="UTF-8"?>
<svg width="428px" height="105px" viewBox="0 0 428 105" version="1.1" xmlns="http://www.w3.org/2000/svg" xmlns:xlink="http://www.w3.org/1999/xlink">
    <!-- Generator: Sketch 52.4 (67378) - http://www.bohemiancoding.com/sketch -->
    <title>RESET</title>
    <desc>Created with Sketch.</desc>
    <g id="versão-1" stroke="none" stroke-width="1" fill="none" fill-rule="evenodd">
        <path d="M51.62,104 L32.19,67.0480226 L32.19,104 L0,104 L0,1 L47.85,1 C56.1633749,1 63.2683039,2.47903417 69.165,5.43714689 C75.0616962,8.39525961 79.4841519,12.4201723 82.4325,17.5120056 C85.3808481,22.603839 86.855,28.3502505 86.855,34.7514124 C86.855,41.6375109 84.9458524,47.7476193 81.1275,53.0819209 C77.3091476,58.4162225 71.8233691,62.2471635 64.67,64.5748588 L87,104 L51.62,104 Z M33,46 L45.7368421,46 C48.8245768,46 51.1403432,45.3152846 52.6842105,43.9458333 C54.2280779,42.576382 55,40.4277924 55,37.5 C55,34.8555423 54.2039553,32.7777853 52.6118421,31.2666667 C51.0197289,29.755548 48.7280851,29 45.7368421,29 L33,29 L33,46 Z M128.983051,26.6045198 L128.983051,39.4067797 L160.677966,39.4067797 L160.677966,63.7019774 L128.983051,63.7019774 L128.983051,78.25 L165,78.25 L165,104 L97,104 L97,1 L165,1 L165,26.6045198 L128.983051,26.6045198 Z M256,73.8033012 C256,79.6767831 254.481497,84.9724661 251.444444,89.6905089 C248.407392,94.4085518 243.996502,98.1396011 238.21164,100.883769 C232.426779,103.627937 225.533256,105 217.530864,105 C205.286241,105 195.186989,102.135517 187.232804,96.4064649 C179.27862,90.6774129 174.964142,82.276534 174.289242,71.2035763 L208.419753,71.2035763 C208.901825,77.0770583 211.504973,80.0137552 216.229277,80.0137552 C217.868321,80.0137552 219.193998,79.580472 220.206349,78.7138927 C221.2187,77.8473134 221.724868,76.5956065 221.724868,74.9587345 C221.724868,72.5515698 220.495603,70.6499382 218.037037,69.2537827 C215.578471,67.8576271 211.601438,66.244851 206.10582,64.4154058 C199.646058,62.2971008 194.271039,60.1306851 189.9806,57.9160935 C185.690161,55.701502 181.954161,52.4278071 178.772487,48.0949106 C175.590813,43.7620141 174,38.1293331 174,31.1966988 C174,24.5529241 175.711329,18.8961719 179.134039,14.2262724 C182.556748,9.5563728 187.232775,6.01789374 193.162257,3.61072902 C199.09174,1.20356431 205.768334,0 213.19224,0 C225.436863,0 235.174567,2.84041176 242.405644,8.5213205 C249.63672,14.2022292 253.58965,22.3864665 254.26455,33.0742779 L219.700176,33.0742779 C219.218105,27.6822289 217.000608,24.9862448 213.047619,24.9862448 C211.697818,24.9862448 210.58907,25.3954567 209.72134,26.2138927 C208.853611,27.0323287 208.419753,28.2599643 208.419753,29.8968363 C208.419753,32.1114279 209.649018,33.9167743 212.107584,35.3129298 C214.56615,36.7090854 218.398563,38.3218616 223.604938,40.1513067 C230.161114,42.4621849 235.584341,44.748957 239.87478,47.0116919 C244.165218,49.2744267 247.925322,52.5962642 251.155203,56.977304 C254.385084,61.3583438 256,66.9669534 256,73.8033012 Z M299.983051,26.6045198 L299.983051,39.4067797 L331.677966,39.4067797 L331.677966,63.7019774 L299.983051,63.7019774 L299.983051,78.25 L336,78.25 L336,104 L268,104 L268,1 L336,1 L336,26.6045198 L299.983051,26.6045198 Z M428,1 L428,26.6045198 L400.872483,26.6045198 L400.872483,104 L368.838926,104 L368.838926,26.6045198 L342,26.6045198 L342,1 L428,1 Z" id="RESET" fill="#FAFAFA"></path>
    </g>
</svg>