<?xml version="1.0" encoding="UTF-8"?>
<svg width="471px" height="105px" viewBox="0 0 471 105" version="1.1" xmlns="http://www.w3.org/2000/svg" xmlns:xlink="http://www.w3.org/1999/xlink">
    <!-- Generator: Sketch 52.4 (67378) - http://www.bohemiancoding.com/sketch -->
    <title>SOBRE</title>
    <desc>Created with Sketch.</desc>
    <g id="versão-1" stroke="none" stroke-width="1" fill="none" fill-rule="evenodd">
        <path d="M82,73.8033012 C82,79.6767831 80.4814967,84.9724661 77.4444444,89.6905089 C74.4073922,94.4085518 69.9965016,98.1396011 64.2116402,100.883769 C58.4267788,103.627937 51.5332558,105 43.5308642,105 C31.286241,105 21.1869886,102.135517 13.2328042,96.4064649 C5.27861984,90.6774129 0.964142116,82.276534 0.289241623,71.2035763 L34.4197531,71.2035763 C34.9018249,77.0770583 37.5049734,80.0137552 42.2292769,80.0137552 C43.868321,80.0137552 45.1939985,79.580472 46.2063492,78.7138927 C47.2186999,77.8473134 47.7248677,76.5956065 47.7248677,74.9587345 C47.7248677,72.5515698 46.4956031,70.6499382 44.037037,69.2537827 C41.578471,67.8576271 37.6014384,66.244851 32.1058201,64.4154058 C25.6460582,62.2971008 20.2710385,60.1306851 15.9805996,57.9160935 C11.6901608,55.701502 7.95416053,52.4278071 4.77248677,48.0949106 C1.59081302,43.7620141 0,38.1293331 0,31.1966988 C0,24.5529241 1.71132915,18.8961719 5.1340388,14.2262724 C8.55674845,9.5563728 13.2327746,6.01789374 19.1622575,3.61072902 C25.0917404,1.20356431 31.7683344,0 39.1922399,0 C51.4368631,0 61.174567,2.84041176 68.4056437,8.5213205 C75.6367205,14.2022292 79.5896498,22.3864665 80.2645503,33.0742779 L45.7001764,33.0742779 C45.2181046,27.6822289 43.0006077,24.9862448 39.047619,24.9862448 C37.6978181,24.9862448 36.5890696,25.3954567 35.7213404,26.2138927 C34.8536112,27.0323287 34.4197531,28.2599643 34.4197531,29.8968363 C34.4197531,32.1114279 35.6490177,33.9167743 38.1075838,35.3129298 C40.5661499,36.7090854 44.398563,38.3218616 49.6049383,40.1513067 C56.1611145,42.4621849 61.5843407,44.748957 65.8747795,47.0116919 C70.1652184,49.2744267 73.9253219,52.5962642 77.1552028,56.977304 C80.3850838,61.3583438 82,66.9669534 82,73.8033012 Z M143.644231,0 C153.259663,0 162.057652,2.23862961 170.038462,6.71595598 C178.019271,11.1932824 184.341323,17.4277455 189.004808,25.4195323 C193.668293,33.4113192 196,42.4139802 196,52.4277854 C196,62.4415906 193.668293,71.4442517 189.004808,79.4360385 C184.341323,87.4278254 177.995232,93.6863598 169.966346,98.2118294 C161.93746,102.737299 153.163509,105 143.644231,105 C134.028798,105 125.206771,102.737299 117.177885,98.2118294 C109.148998,93.6863598 102.77887,87.4278254 98.0673077,79.4360385 C93.3557457,71.4442517 91,62.4415906 91,52.4277854 C91,42.4139802 93.3557457,33.4113192 98.0673077,25.4195323 C102.77887,17.4277455 109.148998,11.1932824 117.177885,6.71595598 C125.206771,2.23862961 134.028798,0 143.644231,0 Z M143.072202,29 C136.62211,29 131.664277,31.0687624 128.198556,35.2063492 C124.732835,39.343936 123,44.966102 123,52.0730159 C123,59.0825747 124.732835,64.656064 128.198556,68.7936508 C131.664277,72.9312376 136.62211,75 143.072202,75 C149.426025,75 154.335723,72.9312376 157.801444,68.7936508 C161.267165,64.656064 163,59.0825747 163,52.0730159 C163,44.966102 161.267165,39.343936 157.801444,35.2063492 C154.335723,31.0687624 149.426025,29 143.072202,29 Z M276.492611,51.190678 C282.65794,52.6454875 287.450448,55.6278023 290.870279,60.1377119 C294.29011,64.6476214 296,69.8606107 296,75.7768362 C296,84.7966553 293.037796,91.7553898 287.1133,96.6532486 C281.188805,101.551107 272.687521,104 261.609195,104 L208,104 L208,1 L260.164204,1 C270.568197,1 278.756401,3.27916742 284.729064,7.83757062 C290.701727,12.3959738 293.688013,19.0395044 293.688013,27.7683616 C293.688013,33.7815743 292.122621,38.8490849 288.99179,42.9710452 C285.860959,47.0930055 281.694607,49.8328557 276.492611,51.190678 Z M240,41 L252.455172,41 C255.351739,41 257.499993,40.4400056 258.9,39.32 C260.300007,38.1999944 261,36.473345 261,34.14 C261,31.7133212 260.300007,29.9166725 258.9,28.75 C257.499993,27.5833275 255.351739,27 252.455172,27 L240,27 L240,41 Z M254.51875,78 C257.393764,78 259.526035,77.4633387 260.915625,76.39 C262.305215,75.3166613 263,73.5666788 263,71.14 C263,66.3799762 260.172945,64 254.51875,64 L240,64 L240,78 L254.51875,78 Z M357.62,104 L338.19,67.0480226 L338.19,104 L306,104 L306,1 L353.85,1 C362.163375,1 369.268304,2.47903417 375.165,5.43714689 C381.061696,8.39525961 385.484152,12.4201723 388.4325,17.5120056 C391.380848,22.603839 392.855,28.3502505 392.855,34.7514124 C392.855,41.6375109 390.945852,47.7476193 387.1275,53.0819209 C383.309148,58.4162225 377.823369,62.2471635 370.67,64.5748588 L393,104 L357.62,104 Z M338,45 L350.736842,45 C353.824577,45 356.140343,44.3152846 357.684211,42.9458333 C359.228078,41.576382 360,39.4277924 360,36.5 C360,33.8555423 359.203955,31.7777853 357.611842,30.2666667 C356.019729,28.755548 353.728085,28 350.736842,28 L338,28 L338,45 Z M434.983051,26.6045198 L434.983051,39.4067797 L466.677966,39.4067797 L466.677966,63.7019774 L434.983051,63.7019774 L434.983051,78.25 L471,78.25 L471,104 L403,104 L403,1 L471,1 L471,26.6045198 L434.983051,26.6045198 Z" id="SOBRE" fill="#FAFAFA"></path>
    </g>
</svg>