<?xml version="1.0" encoding="UTF-8"?>
<svg width="1046px" height="107px" viewBox="0 0 1046 107" version="1.1" xmlns="http://www.w3.org/2000/svg" xmlns:xlink="http://www.w3.org/1999/xlink">
    <!-- Generator: Sketch 52.3 (67297) - http://www.bohemiancoding.com/sketch -->
    <title>Group</title>
    <desc>Created with Sketch.</desc>
    <g id="versão-1" stroke="none" stroke-width="1" fill="none" fill-rule="evenodd">
        <g id="first-page-v1.0" transform="translate(-35.000000, -30.000000)" fill="#FAFAFA">
            <g id="Group" transform="translate(35.000000, 30.000000)">
                <path d="M397.41005,106.484591 L395.014624,105.575992 C392.565954,105.965394 389.744703,106.160092 386.550786,106.160092 C375.904395,106.160092 366.136477,103.872391 357.246741,99.296922 C348.357004,94.7214527 341.303876,88.393771 336.087144,80.3136869 C330.870412,72.2336029 328.262086,63.131476 328.262086,53.0070334 C328.262086,42.8825907 330.870412,33.7804639 336.087144,25.7003798 C341.303876,17.6202958 348.357004,11.3169512 357.246741,6.79015717 C366.136477,2.26336309 375.904395,1.42108547e-14 386.550786,1.42108547e-14 C397.197177,1.42108547e-14 406.938479,2.26336309 415.774983,6.79015717 C424.611488,11.3169512 431.611385,17.6202958 436.774885,25.7003798 C441.938385,33.7804639 444.520096,42.8825907 444.520096,53.0070334 C444.520096,61.2818182 442.763467,68.8993736 439.250158,75.8599279 C435.736849,82.8204822 430.892814,88.734431 424.717907,93.6019515 L439.250158,106.484591 L397.41005,106.484591 Z M364.353171,53.0070334 C364.353171,60.0162629 366.269493,65.5894903 370.102194,69.7268827 C373.934894,73.8642752 379.417704,75.9329404 386.550786,75.9329404 C393.577404,75.9329404 399.006982,73.8642752 402.839683,69.7268827 C406.672384,65.5894903 408.588705,60.0162629 408.588705,53.0070334 C408.588705,45.9004534 406.672384,40.2785515 402.839683,36.1411591 C399.006982,32.0037667 393.577404,29.9351015 386.550786,29.9351015 C379.417704,29.9351015 373.934894,32.0037667 370.102194,36.1411591 C366.269493,40.2785515 364.353171,45.9004534 364.353171,53.0070334 Z M491.949531,1.75229862 L491.949531,60.0162279 C491.949531,64.786398 493.094001,68.5586698 495.382975,71.3331565 C497.671949,74.1076432 501.371515,75.4948657 506.481782,75.4948657 C511.59205,75.4948657 515.371462,74.1076432 517.820132,71.3331565 C520.268802,68.5586698 521.493119,64.786398 521.493119,60.0162279 L521.493119,1.75229862 L556.785729,1.75229862 L556.785729,60.0162279 C556.785729,69.8486193 554.55002,78.2449662 550.078536,85.2055206 C545.607052,92.1660749 539.485469,97.398581 531.713603,100.903196 C523.941738,104.407811 515.265059,106.160092 505.683307,106.160092 C496.101555,106.160092 487.611185,104.407811 480.211944,100.903196 C472.812702,97.398581 467.037121,92.1904121 462.885029,85.278533 C458.732936,78.3666539 456.656921,69.9459697 456.656921,60.0162279 L456.656921,1.75229862 L491.949531,1.75229862 Z M607.568761,27.4526784 L607.568761,40.3028683 L642.701676,40.3028683 L642.701676,64.6890242 L607.568761,64.6890242 L607.568761,79.2915127 L647.492528,79.2915127 L647.492528,105.137917 L572.116456,105.137917 L572.116456,1.75229862 L647.492528,1.75229862 L647.492528,27.4526784 L607.568761,27.4526784 Z M696.359219,1.75229862 L696.359219,105.137917 L660.906914,105.137917 L660.906914,1.75229862 L696.359219,1.75229862 Z M784.351202,105.137917 L763.590843,78.2693385 L746.343775,105.137917 L705.940923,105.137917 L743.149874,51.8388343 L704.343972,1.75229862 L746.343775,1.75229862 L766.305659,27.5987033 L782.913946,1.75229862 L823.316799,1.75229862 L786.746628,54.0292076 L826.351005,105.137917 L784.351202,105.137917 Z M906.83732,89.5132547 L869.149283,89.5132547 L863.559956,105.137917 L826.351005,105.137917 L867.712028,1.75229862 L908.593965,1.75229862 L949.795293,105.137917 L912.426647,105.137917 L906.83732,89.5132547 Z M898.213786,65.1270988 L887.993301,36.3601964 L877.772817,65.1270988 L898.213786,65.1270988 Z M1045.13325,74.6187164 C1045.13325,80.5570914 1043.45647,85.9112837 1040.10285,90.6814538 C1036.74924,95.4516239 1031.87859,99.2238957 1025.49076,101.998382 C1019.10292,104.772869 1011.49087,106.160092 1002.65436,106.160092 C989.133444,106.160092 977.981517,103.26396 969.198244,97.4716109 C960.414971,91.6792615 955.650783,83.1855656 954.905535,71.9902685 L992.593571,71.9902685 C993.125891,77.9286435 996.000373,80.8977865 1001.21711,80.8977865 C1003.02699,80.8977865 1004.49085,80.4597162 1005.60872,79.5835625 C1006.72659,78.7074088 1007.28552,77.4418724 1007.28552,75.7869155 C1007.28552,73.3531552 1005.92812,71.4305135 1003.21329,70.0189325 C1000.49846,68.6073516 996.106893,66.9767566 990.03845,65.1270988 C982.905368,62.9853898 976.970094,60.7950384 972.23245,58.555979 C967.494806,56.3169196 963.369391,53.0070553 959.856082,48.6262868 C956.342773,44.2455183 954.586145,38.5506048 954.586145,31.5413752 C954.586145,24.8241969 956.475851,19.1049461 960.25532,14.3834512 C964.034789,9.6619563 969.198211,6.08438239 975.745742,3.65062213 C982.293272,1.21686188 989.665787,1.42108547e-14 997.863509,1.42108547e-14 C1011.38443,1.42108547e-14 1022.13712,2.87179403 1030.12191,8.61546823 C1038.10671,14.3591424 1042.47166,22.6338032 1043.21691,33.4396987 L1005.04979,33.4396987 C1004.51747,27.9880758 1002.06883,25.2623052 997.703814,25.2623052 C996.213319,25.2623052 994.989002,25.6760382 994.030827,26.5035167 C993.072652,27.3309952 992.593571,28.5721943 992.593571,30.2271513 C992.593571,32.4662107 993.950966,34.2915035 996.665796,35.7030845 C999.380625,37.1146654 1003.6125,38.7452603 1009.36155,40.5949181 C1016.6011,42.931328 1022.5896,45.2433655 1027.32725,47.5311002 C1032.06489,49.8188348 1036.21692,53.1773736 1039.78346,57.6068173 C1043.35001,62.0362609 1045.13325,67.7068373 1045.13325,74.6187164 Z" id="QUEIXAS"></path>
                <path d="M276.316912,48.6749618 C282.785725,48.6749618 288.613975,49.959733 293.801835,52.5293139 C298.989695,55.0988949 303.072672,58.7676305 306.050887,63.5356307 C309.029103,68.3036309 310.518189,73.8566976 310.518189,80.1949973 L310.518189,105.462417 L242.499919,105.462417 L242.499919,80.1949973 C242.499919,73.8566976 243.94097,68.3036309 246.823114,63.5356307 C249.705259,58.7676305 253.708177,55.0988949 258.83199,52.5293139 C263.955802,49.959733 269.784051,48.6749618 276.316912,48.6749618 Z M292.774293,81.8886124 L292.774293,86.5332654 L260.243816,86.5332654 L260.243816,81.8886124 C260.243816,77.5068424 261.65071,74.0306903 264.464542,71.4600519 C267.278374,68.8894135 271.293171,67.6041136 276.509054,67.6041136 C281.724937,67.6041136 285.739734,68.8894135 288.553566,71.4600519 C291.367398,74.0306903 292.774293,77.5068424 292.774293,81.8886124 Z M259.408416,21.4843581 L267.862664,21.4843581 L267.862664,2.57812297 L283.906521,2.57812297 L283.906521,21.4843581 L293.513622,21.4843581 L293.513622,-9.46724218e-14 L310.518189,-9.9475983e-14 L310.518189,40.5624681 L242.499919,40.5624681 L242.499919,-9.9475983e-14 L259.408416,-9.9475983e-14 L259.408416,21.4843581 Z" id="DE"></path>
                <path d="M35.2926102,1.0221742 L35.2926102,59.2861034 C35.2926102,64.0562735 36.4370801,67.8285453 38.7260542,70.603032 C41.0150283,73.3775187 44.7145937,74.7647413 49.8248614,74.7647413 C54.9351292,74.7647413 58.7145413,73.3775187 61.1632113,70.603032 C63.6118813,67.8285453 64.8361979,64.0562735 64.8361979,59.2861034 L64.8361979,1.0221742 L100.128808,1.0221742 L100.128808,59.2861034 C100.128808,69.1184949 97.8930995,77.5148418 93.4216152,84.4753961 C88.9501309,91.4359505 82.8285478,96.6684565 75.0566823,100.173071 C67.2848168,103.677686 58.6081381,105.429967 49.0263861,105.429967 C39.4446341,105.429967 30.9542645,103.677686 23.5550226,100.173071 C16.1557808,96.6684565 10.3802002,91.4602877 6.22810768,84.5484086 C2.07601513,77.6365295 2.84217094e-14,69.2158453 2.84217094e-14,59.2861034 L2.84217094e-14,1.0221742 L35.2926102,1.0221742 Z M168.158907,7.10542736e-15 C177.953587,7.10542736e-15 186.710113,1.67926939 194.428746,5.03785854 C202.14738,8.3964477 208.428656,13.142209 213.272764,19.2752849 C218.116872,25.4083607 221.337357,32.5635085 222.934316,40.740943 L185.56567,40.740943 C183.862247,37.3336786 181.44023,34.6809198 178.299544,32.7825867 C175.158859,30.8842537 171.565756,29.9351015 167.520127,29.9351015 C161.558148,29.9351015 156.847191,31.9794294 153.387113,36.0681467 C149.927036,40.1568639 148.197024,45.6570796 148.197024,52.5689587 C148.197024,59.4808378 149.927036,64.9810535 153.387113,69.0697707 C156.847191,73.158488 161.558148,75.2028159 167.520127,75.2028159 C171.565756,75.2028159 175.158859,74.2536637 178.299544,72.3553307 C181.44023,70.4569977 183.862247,67.8042388 185.56567,64.3969744 L222.934316,64.3969744 C221.337357,72.5744089 218.116872,79.7295567 213.272764,85.8626326 C208.428656,91.9957084 202.14738,96.7414697 194.428746,100.100059 C186.710113,103.458648 177.953587,105.137917 168.158907,105.137917 C156.767269,105.137917 146.866274,102.923229 138.455625,98.4937851 C130.044976,94.0643415 123.57739,87.8583459 119.052674,79.8756123 C114.527957,71.8928786 112.265633,62.7907518 112.265633,52.5689587 C112.265633,42.3471656 114.527957,33.2450388 119.052674,25.2623052 C123.57739,17.2795715 130.044976,11.0735759 138.455625,6.64413228 C146.866274,2.21468861 156.767269,7.10542736e-15 168.158907,7.10542736e-15 Z" id="UC"></path>
            </g>
        </g>
    </g>
</svg>